#!OML:ASF Y:\EmotionMaleHayes\Project 1\Capture day 1\Session 1\Male1.ASF
:FULLY-SPECIFIED
:DEGREES
465
root -1.82197 16.0136 15.951 -172.985 47.3779 -170.322
lowerback 12.8844 -0.484869 -2.01009
upperback 4.26125 -0.553329 1.3281
thorax -2.71093 -0.162548 2.59668
lowerneck -22.623 0.109496 1.83591
upperneck 26.5559 1.46565 -4.86897
head 12.656 0.326296 -1.89135
rclavicle 5.98342e-014 1.11319e-014
rhumerus -75.9909 19.5125 -102.28
rradius 56.497
rwrist -28.5579
rhand -24.4168 -40.1413
rfingers 7.12502
rthumb 2.07479 -70.111
lclavicle 5.98342e-014 1.11319e-014
lhumerus -32.1264 -41.2457 85.8273
lradius 84.2791
lwrist 10.609
lhand -23.128 -22.9402
lfingers 7.12502
lthumb 3.31946 7.0137
rfemur -15.7247 5.60045 0.781822
rtibia 19.7991
rfoot -11.7484 0.0314505
rtoes -25.0573
lfemur -7.06967 -6.67701 -28.0196
ltibia 47.1977
lfoot -25.5444 -7.01937
ltoes 20.7179
466
root -1.58865 15.9646 15.9189 -173.082 45.3897 -170.601
lowerback 12.531 -0.557056 -1.8825
upperback 4.12158 -0.637759 1.36557
thorax -2.66177 -0.208166 2.57247
lowerneck -22.3332 0.37908 2.28256
upperneck 26.7059 1.87235 -5.30234
head 12.6846 0.509468 -2.06288
rclavicle 6.97734e-014 -1.51076e-014
rhumerus -78.2769 18.6466 -102.907
rradius 57.341
rwrist -28.1859
rhand -23.8999 -39.0305
rfingers 7.12502
rthumb 2.574 -68.9948
lclavicle 6.97734e-014 -1.51076e-014
lhumerus -31.1921 -41.9661 85.4633
lradius 86.1052
lwrist 10.4848
lhand -24.0484 -23.7234
lfingers 7.12502
lthumb 2.43065 6.24252
rfemur -15.1987 4.16586 0.647005
rtibia 19.2215
rfoot -8.42787 1.12195
rtoes -16.7692
lfemur -7.07319 -7.67233 -27.5675
ltibia 48.7084
lfoot -25.4827 -7.62673
ltoes 19.5246
467
root -1.35269 15.9119 15.8893 -173.284 43.5554 -170.954
lowerback 12.1358 -0.542021 -1.82512
upperback 4.08849 -0.613306 1.28775
thorax -2.48485 -0.199538 2.45026
lowerneck -22.3115 0.526465 2.38036
upperneck 27.1145 2.09017 -5.2333
head 12.856 0.637914 -2.02009
rclavicle -4.37326e-014 2.38542e-015
rhumerus -80.1376 17.6774 -103.612
rradius 58.046
rwrist -27.5313
rhand -23.7006 -38.1206
rfingers 7.12502
rthumb 2.76653 -68.0824
lclavicle -4.37326e-014 2.38542e-015
lhumerus -30.1805 -42.8037 84.9286
lradius 87.715
lwrist 10.1583
lhand -25.4623 -24.583
lfingers 7.12502
lthumb 1.0651 5.39413
rfemur -14.6567 2.74355 0.545241
rtibia 19.2202
rfoot -8.04996 1.44958
rtoes -14.4972
lfemur -7.09005 -8.68738 -27.1544
ltibia 50.2469
lfoot -25.03 -8.63632
ltoes 19.2145
468
root -1.12063 15.8522 15.8647 -173.297 41.7918 -170.957
lowerback 11.95 -0.524488 -1.51096
upperback 4.04385 -0.554021 1.24886
thorax -2.4384 -0.169549 2.2219
lowerneck -22.423 0.659907 2.4862
upperneck 27.6016 2.31494 -5.23423
head 13.0904 0.75962 -2.00588
rclavicle -7.196e-014 1.59028e-015
rhumerus -81.8037 16.9956 -104.626
rradius 58.5133
rwrist -26.8096
rhand -23.417 -37.736
rfingers 7.12502
rthumb 3.04036 -67.6941
lclavicle -7.196e-014 1.59028e-015
lhumerus -29.4885 -43.1973 84.6249
lradius 89.2329
lwrist 9.95158
lhand -26.6876 -25.8404
lfingers 7.12502
lthumb -0.118315 4.13932
rfemur -13.2271 4.09015 1.13257
rtibia 19.1602
rfoot -10.61 -3.17942
rtoes -26.6428
lfemur -7.28238 -9.64339 -26.3634
ltibia 52.0115
lfoot -24.0465 -10.0225
ltoes 20.2823
469
root -0.872193 15.7985 15.8497 -173.708 40.1347 -171.121
lowerback 12.0853 -0.443064 -1.66279
upperback 4.07672 -0.454434 1.26971
thorax -2.48055 -0.116058 2.31686
lowerneck -22.6132 0.833702 2.73723
upperneck 28.103 2.62795 -5.47647
head 13.3613 0.902054 -2.09573
rclavicle -2.50469e-014 -7.95139e-015
rhumerus -83.2602 16.5719 -105.713
rradius 58.8129
rwrist -26.0483
rhand -22.9733 -37.6924
rfingers 7.12502
rthumb 3.46885 -67.6439
lclavicle -2.50469e-014 -7.95139e-015
lhumerus -29.1207 -43.0441 84.7421
lradius 90.4957
lwrist 9.8876
lhand -27.8684 -27.243
lfingers 7.12502
lthumb -1.25877 2.73299
rfemur -13.1664 1.53811 1.74609
rtibia 23.1971
rfoot -14.1749 -4.55069
rtoes -40.1343
lfemur -7.24197 -10.316 -25.5732
ltibia 53.8359
lfoot -22.7375 -11.1793
ltoes 20.7831
470
root -0.673807 15.7296 15.8299 -173.868 38.9564 -171.264
lowerback 12.2685 -0.205338 -1.33598
upperback 4.03205 -0.104894 1.11137
thorax -2.64745 0.0628971 1.9193
lowerneck -22.8251 0.895321 2.78599
upperneck 28.5244 2.78521 -5.53541
head 13.5933 0.977196 -2.10533
rclavicle 5.96354e-016 -1.59028e-015
rhumerus -84.1052 16.0189 -106.58
rradius 58.8504
rwrist -25.36
rhand -22.6131 -37.7752
rfingers 7.12502
rthumb 3.81671 -67.7207
lclavicle 5.96354e-016 -1.59028e-015
lhumerus -28.8816 -42.925 85.0223
lradius 91.529
lwrist 10.0036
lhand -29.1253 -28.3014
lfingers 7.12502
lthumb -2.47271 1.66406
rfemur -12.9111 1.36865 2.41689
rtibia 25.5176
rfoot -16.2859 -5.60515
rtoes -43.1635
lfemur -8.04338 -10.688 -24.978
ltibia 56.2155
lfoot -21.018 -11.9451
ltoes 21.3734
471
root -0.468905 15.6819 15.8208 -173.72 37.8748 -170.445
lowerback 12.7967 0.0845473 -0.469579
upperback 4.11419 0.408043 1.14963
thorax -2.86786 0.330434 1.39465
lowerneck -22.7573 1.04006 3.14511
upperneck 28.5084 2.95361 -5.75879
head 13.5912 1.06727 -2.22335
rclavicle -2.16675e-014 -3.4191e-014
rhumerus -84.4038 15.504 -107.33
rradius 58.6751
rwrist -24.7518
rhand -22.7516 -37.8944
rfingers 7.12502
rthumb 3.68299 -67.8423
lclavicle -2.16675e-014 -3.4191e-014
lhumerus -28.7668 -42.7957 85.373
lradius 92.3198
lwrist 10.1444
lhand -30.1896 -28.9335
lfingers 7.12502
lthumb -3.50056 1.01753
rfemur -13.1111 -0.124141 3.51128
rtibia 27.5084
rfoot -17.0986 -4.7312
rtoes -40.6704
lfemur -8.65138 -10.6312 -23.3188
ltibia 58.447
lfoot -18.5576 -12.9254
ltoes 22.4833
472
root -0.275513 15.6528 15.8085 -172.805 37.0305 -168.651
lowerback 13.1435 0.432191 1.17438
upperback 4.22905 1.11808 1.36563
thorax -2.93253 0.697327 0.581397
lowerneck -22.717 1.2074 3.90374
upperneck 28.2626 3.08666 -6.34645
head 13.5107 1.12922 -2.55852
rclavicle 5.56597e-015 4.6118e-014
rhumerus -84.1244 15.1438 -107.962
rradius 58.2987
rwrist -24.2722
rhand -23.1354 -37.9555
rfingers 7.12502
rthumb 3.31233 -67.9095
lclavicle 5.56597e-015 4.6118e-014
lhumerus -28.6842 -42.5348 85.8607
lradius 92.7444
lwrist 10.0747
lhand -31.0608 -29.1703
lfingers 7.12502
lthumb -4.34182 0.765239
rfemur -12.709 -0.324936 5.75311
rtibia 27.9686
rfoot -17.3759 -5.07856
rtoes -40.1173
lfemur -9.59525 -9.86058 -20.575
ltibia 60.4718
lfoot -15.6498 -13.6622
ltoes 22.8947
473
root -0.0907359 15.6451 15.7777 -171.711 36.2688 -166.839
lowerback 13.1813 0.724057 2.81949
upperback 4.38339 1.75791 1.63923
thorax -2.7544 1.03401 -0.15629
lowerneck -22.8911 1.3937 4.52109
upperneck 28.0498 3.25773 -6.84949
head 13.4909 1.19622 -2.8309
rclavicle -1.55251e-013 -7.95139e-016
rhumerus -83.3764 15.4138 -108.579
rradius 57.6614
rwrist -24.0817
rhand -22.8978 -37.8843
rfingers 7.12502
rthumb 3.54182 -67.8347
lclavicle -1.55251e-013 -7.95139e-016
lhumerus -28.871 -41.8142 86.6476
lradius 92.8122
lwrist 9.88895
lhand -31.6056 -28.9448
lfingers 7.12502
lthumb -4.86792 0.979313
rfemur -12.5705 -1.27989 7.99013
rtibia 28.9079
rfoot -18.0487 -4.90992
rtoes -40.2081
lfemur -10.72 -8.55472 -17.7261
ltibia 62.2655
lfoot -12.5591 -14.1097
ltoes 23.7385
474
root 0.0880217 15.6612 15.7333 -171.071 35.5075 -165.691
lowerback 13.2098 0.91057 3.76787
upperback 4.57824 2.17007 1.92543
thorax -2.53364 1.26194 -0.449792
lowerneck -23.0642 1.66559 4.65734
upperneck 27.8366 3.60602 -6.96238
head 13.4699 1.34005 -2.83169
rclavicle -2.22639e-014 -2.46493e-014
rhumerus -82.5548 16.5565 -109.176
rradius 57.0608
rwrist -24.1746
rhand -22.2051 -37.9413
rfingers 7.12502
rthumb 4.21069 -67.8794
lclavicle -2.22639e-014 -2.46493e-014
lhumerus -29.4275 -40.4 87.8099
lradius 92.4992
lwrist 9.59401
lhand -31.8119 -28.5682
lfingers 7.12502
lthumb -5.06714 1.35122
rfemur -12.0796 -2.52361 9.54811
rtibia 29.5808
rfoot -18.8468 -4.52113
rtoes -40.7515
lfemur -11.8516 -7.23229 -15.5999
ltibia 64.0998
lfoot -9.27185 -14.2105
ltoes 26.4522
475
root 0.268179 15.7003 15.6867 -171.337 34.8234 -165.563
lowerback 13.6175 1.16293 3.70813
upperback 4.82085 2.55739 2.08461
thorax -2.49755 1.47385 -0.316669
lowerneck -23.0998 1.91604 4.77686
upperneck 27.6663 3.92521 -7.01282
head 13.4349 1.48361 -2.80964
rclavicle 2.64384e-014 -1.43125e-014
rhumerus -80.5159 16.9657 -108.292
rradius 55.5158
rwrist -22.9688
rhand -21.731 -37.7694
rfingers 7.12502
rthumb 4.66851 -67.698
lclavicle 2.64384e-014 -1.43125e-014
lhumerus -30.2724 -38.8397 89.1867
lradius 91.9393
lwrist 9.23099
lhand -31.6708 -27.8332
lfingers 7.12502
lthumb -4.93086 2.08945
rfemur -10.7962 -3.35446 10.1501
rtibia 29.5447
rfoot -19.6421 -4.44471
rtoes -41.6259
lfemur -12.5755 -5.93557 -14.5691
ltibia 65.6392
lfoot -7.41556 -14.7321
ltoes 24.8216
476
root 0.423031 15.7479 15.6267 -172.155 34.1874 -166.223
lowerback 14.2386 1.45033 3.2733
upperback 5.03506 2.93371 1.97718
thorax -2.61222 1.67325 -0.261312
lowerneck -23.1089 2.05713 4.94839
upperneck 27.538 4.1003 -7.14305
head 13.4044 1.56138 -2.85549
rclavicle 3.95581e-014 4.6118e-014
rhumerus -78.7589 17.8513 -108.276
rradius 54.2088
rwrist -22.8116
rhand -22.5104 -37.9696
rfingers 7.12502
rthumb 3.91593 -67.9133
lclavicle 3.95581e-014 4.6118e-014
lhumerus -31.307 -37.4524 90.5612
lradius 91.0403
lwrist 9.20796
lhand -31.3512 -27.0471
lfingers 7.12502
lthumb -4.62226 2.88246
rfemur -8.57646 -2.28788 10.2115
rtibia 27.938
rfoot -20.1276 -5.606
rtoes -41.0352
lfemur -13.2051 -4.61371 -14.5979
ltibia 66.7935
lfoot -7.69425 -14.769
ltoes 15.2686
477
root 0.584027 15.8056 15.5635 -172.857 33.5375 -166.696
lowerback 14.7644 1.76133 2.78204
upperback 5.24321 3.32735 1.93087
thorax -2.69041 1.88132 -0.114767
lowerneck -22.9164 2.19481 5.61225
upperneck 27.4507 4.1624 -7.46387
head 13.3561 1.62379 -3.08315
rclavicle 7.15625e-015 -1.90833e-014
rhumerus -76.9448 18.6862 -108.099
rradius 53.0543
rwrist -22.7349
rhand -23.1989 -38.4514
rfingers 7.12502
rthumb 3.25103 -68.4064
lclavicle 7.15625e-015 -1.90833e-014
lhumerus -32.3815 -36.1305 91.8435
lradius 89.6905
lwrist 9.43264
lhand -31.1824 -26.5759
lfingers 7.12502
lthumb -4.4593 3.35712
rfemur -6.72999 -2.3783 10.1983
rtibia 26.9356
rfoot -20.7507 -5.62876
rtoes -39.6287
lfemur -13.8704 -3.05133 -14.5046
ltibia 67.773
lfoot -8.48879 -14.8232
ltoes 9.05915
478
root 0.744761 15.8676 15.5015 -173.139 32.619 -166.546
lowerback 15.2928 2.00317 2.89117
upperback 5.3478 3.72127 2.02174
thorax -2.85482 2.08984 -0.169178
lowerneck -22.7274 2.20943 5.61446
upperneck 27.4857 4.1409 -7.23791
head 13.3227 1.65583 -2.99635
rclavicle -4.49253e-014 1.11319e-014
rhumerus -74.9167 19.8249 -107.96
rradius 51.8655
rwrist -23.2145
rhand -23.6291 -39.2381
rfingers 7.12502
rthumb 2.83552 -69.199
lclavicle -4.49253e-014 1.11319e-014
lhumerus -33.6579 -34.9569 93.1398
lradius 88.0834
lwrist 9.46046
lhand -31.1495 -26.0062
lfingers 7.12502
lthumb -4.42748 3.92756
rfemur -4.89779 -2.41271 10.9211
rtibia 25.8122
rfoot -21.1508 -6.20787
rtoes -39.3435
lfemur -14.6953 -1.38756 -13.788
ltibia 68.552
lfoot -9.31046 -15.063
ltoes 10.319
479
root 0.898742 15.9312 15.4363 -173.106 31.3585 -166.062
lowerback 15.6926 2.10654 3.51455
upperback 5.38218 4.00825 2.16942
thorax -2.99526 2.24601 -0.432597
lowerneck -22.5742 2.16478 5.60119
upperneck 27.6069 4.04205 -6.98749
head 13.3251 1.65719 -2.91322
rclavicle -2.36554e-014 -7.95139e-015
rhumerus -72.537 20.734 -107.52
rradius 50.6119
rwrist -23.6596
rhand -24.1598 -40.2932
rfingers 7.12502
rthumb 2.32306 -70.2603
lclavicle -2.36554e-014 -7.95139e-015
lhumerus -34.9619 -33.7767 94.3357
lradius 86.2075
lwrist 9.34117
lhand -30.9104 -25.4074
lfingers 7.12502
lthumb -4.19666 4.53102
rfemur -3.41434 -2.97414 11.9158
rtibia 25.0626
rfoot -21.4418 -7.0038
rtoes -40.3867
lfemur -15.7531 0.239661 -12.7766
ltibia 68.9831
lfoot -9.90979 -14.9633
ltoes 13.4553
